<svg width="201" height="181" viewBox="0 0 201 181" fill="none" xmlns="http://www.w3.org/2000/svg">
<path d="M51.4866 2.59668L75.0494 45.1058L53.4101 84.0564C52.3742 85.9165 51.8305 88.0104 51.8305 90.1395C51.8305 92.2686 52.3742 94.3624 53.4101 96.2225L75.0494 135.269L51.4866 177.778C47.0529 175.58 43.3712 172.116 40.9074 167.824L3.39939 102.666C1.21409 98.8617 0.0641174 94.5509 0.0641174 90.1635C0.0641174 85.7761 1.21409 81.4653 3.39939 77.6608L40.9074 12.5026C43.3786 8.22871 47.0596 4.78192 51.4866 2.59668Z" fill="url(#paint0_linear_8_25)"/>
<path opacity="0.7" d="M53.4101 84.1046C52.3828 85.9588 51.8438 88.0438 51.8438 90.1636C51.8438 92.2834 52.3828 94.3684 53.4101 96.2226L75.0493 135.269L51.4866 177.779C47.0529 175.58 43.3711 172.116 40.9074 167.824L3.39938 102.666C0.417969 97.521 17.1042 91.3658 53.4101 84.1527V84.1046Z" fill="url(#paint1_linear_8_25)"/>
<path opacity="0.5" d="M53.891 6.87644L75.0494 45.1058L71.539 51.2129L52.8812 19.6196C47.4954 10.8196 39.2725 15.3879 28.9818 33.1802L30.5206 30.5354L40.9074 12.5026C43.353 8.2427 46.999 4.79736 51.3905 2.59668L53.8429 6.87644H53.891Z" fill="#3B0382"/>
<path d="M159.202 12.5027L196.71 77.6609C201.182 85.3548 201.182 94.9723 196.71 102.666L159.202 167.824C157.009 171.623 153.855 174.778 150.056 176.973C146.258 179.168 141.949 180.324 137.563 180.327H100.055L146.699 96.2225C147.727 94.3683 148.266 92.2833 148.266 90.1635C148.266 88.0438 147.727 85.9588 146.699 84.1046L100.055 0H137.563C141.949 0.00281143 146.258 1.15955 150.056 3.35409C153.855 5.54862 157.009 8.70374 159.202 12.5027Z" fill="#A200FF"/>
<path d="M135.639 180.039L98.6121 180.375L143.429 95.8378C144.431 93.9581 144.955 91.8608 144.955 89.7308C144.955 87.6007 144.431 85.5034 143.429 83.6237L98.6121 0H107.075L154.105 83.239C155.219 85.2054 155.801 87.4288 155.793 89.6891C155.784 91.9494 155.186 94.1683 154.057 96.1264C143.935 113.718 133.885 131.35 123.906 149.022C114.769 165.083 118.713 175.422 135.639 180.039Z" fill="#8F00AB"/>
<path d="M62.5467 180.327C58.6997 180.327 54.8527 179.413 51.4866 177.778L97.7465 94.3471C99.1892 91.7504 99.1892 88.5767 97.7465 85.98L51.4866 2.59671C54.9253 0.894017 58.7096 0.0055173 62.5467 0L100.055 0L146.699 84.1046C147.727 85.9588 148.266 88.0438 148.266 90.1635C148.266 92.2833 147.727 94.3683 146.699 96.2225L100.055 180.327H62.5467Z" fill="#C70887"/>
<path opacity="0.6" d="M143.429 85.98L95.7269 0H100.055L146.699 84.1046C147.727 85.9588 148.266 88.0438 148.266 90.1635C148.266 92.2833 147.727 94.3683 146.699 96.2225L100.055 180.327H95.7269L143.429 94.3471C144.872 91.7504 144.872 88.5767 143.429 85.98Z" fill="#FF079C"/>
<path opacity="0.6" d="M97.7465 85.98L51.4866 2.59672C52.9293 1.82733 54.6604 1.25028 56.2954 0.769409C66.4898 19.0906 81.5411 46.8851 101.497 84.1046C102.525 85.9588 103.064 88.0438 103.064 90.1636C103.064 92.2833 102.525 94.3683 101.497 96.2226L55.574 179.365C53.9391 178.884 53.0735 178.548 51.5347 177.827L97.6985 94.3952C99.1411 91.7985 99.1411 88.6248 97.6985 86.0281L97.7465 85.98Z" fill="url(#paint2_linear_8_25)"/>
<defs>
<linearGradient id="paint0_linear_8_25" x1="3749.33" y1="17520.8" x2="-3930.85" y2="5169.19" gradientUnits="userSpaceOnUse">
<stop stop-color="#7000FF" stop-opacity="0.75"/>
</linearGradient>
<linearGradient id="paint1_linear_8_25" x1="5834.17" y1="7924.61" x2="1879.74" y2="3857.6" gradientUnits="userSpaceOnUse">
<stop stop-color="#D96504"/>
<stop offset="1" stop-color="#D96504" stop-opacity="0"/>
</linearGradient>
<linearGradient id="paint2_linear_8_25" x1="-655.118" y1="18610.5" x2="4810.23" y2="12383" gradientUnits="userSpaceOnUse">
<stop stop-color="white" stop-opacity="0.5"/>
<stop offset="1" stop-color="white" stop-opacity="0.1"/>
</linearGradient>
</defs>
</svg>
